<?xml version="1.0" encoding="UTF-8"?>
<svg id="_图层_2" data-name="图层 2" xmlns="http://www.w3.org/2000/svg" viewBox="0 0 800 190.15">
  <defs>
    <style>
      .cls-1 {
        fill: #fdbb30;
      }

      .cls-1, .cls-2 {
        stroke-width: 0px;
      }

      .cls-2 {
        fill: #1a75cf;
      }
    </style>
  </defs>
  <g id="_图层_1-2" data-name="图层 1">
    <path class="cls-1" d="M702.72,64.01c4.46,0,8.12-2.32,8.62-5.31l4.4-49.75c0-4.92-5.76-8.95-13-8.95s-12.99,4.04-12.99,8.95l4.4,49.75c.48,2.99,4.15,5.31,8.6,5.31h-.02M675.83,79.55c2.23-3.85,2.07-8.19-.29-10.11l-40.89-28.68c-4.25-2.46-10.63.5-14.24,6.78-3.63,6.27-2.99,13.27,1.25,15.73l45.28,21.08c2.83,1.05,6.69-.97,8.91-4.82v.03M729.63,79.53c2.23,3.85,6.07,5.87,8.9,4.82l45.28-21.08c4.27-2.46,4.87-9.46,1.28-15.73-3.64-6.27-10.02-9.24-14.26-6.78l-40.89,28.68c-2.34,1.92-2.51,6.26-.29,10.11v-.03M702.72,126.16c4.46,0,8.12,2.3,8.62,5.29l4.4,49.74c0,4.93-5.76,8.96-13,8.96s-12.99-4.03-12.99-8.96l4.4-49.74c.48-3,4.15-5.29,8.6-5.29h-.02M729.63,110.61c2.23-3.86,6.07-5.86,8.9-4.8l45.28,21.07c4.27,2.46,4.87,9.47,1.28,15.74-3.64,6.25-10.02,9.23-14.26,6.77l-40.89-28.66c-2.34-1.94-2.51-6.27-.29-10.12h-.02M675.83,110.61c2.23,3.85,2.07,8.19-.29,10.13l-40.89,28.66c-4.25,2.46-10.63-.52-14.24-6.77-3.63-6.27-2.99-13.28,1.25-15.74l45.28-21.07c2.83-1.06,6.69.94,8.91,4.8h-.01"/>
    <path class="cls-2" d="M444.79,120.64c0,1.53-.14,3.1-.55,4.48-1.73,5.74-7.68,10.6-15.12,10.6-6.2,0-11.13-3.52-11.13-10.97,0-11.39,12.54-14.54,26.81-14.46v10.34s0,0,0,0ZM467.17,100.79c0-18.78-8.03-35.31-35.14-35.31-13.92,0-24.97,3.91-31,7.39l4.42,15.1c5.51-3.48,14.29-6.36,22.61-6.36,13.75-.04,16.01,7.79,16.01,12.8v1.19c-29.98-.04-48.94,10.34-48.94,31.49,0,12.92,9.65,25.03,26.43,25.03,10.31,0,18.95-4.12,24.12-10.71h.51s3.42,14.33,22.3,8.85c-.99-5.96-1.31-12.32-1.31-19.97v-29.49M0,39.9s19.59,80.29,22.72,93.32c3.65,15.21,10.23,20.81,29.18,17.03l12.23-49.77c3.1-12.37,5.18-21.19,7.18-33.76h.35c1.4,12.7,3.39,21.43,5.95,33.8,0,0,4.98,22.6,7.53,34.46,2.56,11.86,9.67,19.34,28.24,15.27l29.15-110.35h-23.53l-9.96,47.71c-2.68,13.88-5.1,24.74-6.98,37.44h-.33c-1.7-12.59-3.87-23-6.59-36.53l-10.36-48.62h-24.52l-11.09,47.39c-3.14,14.41-6.08,26.03-7.94,38.31h-.34c-1.91-11.56-4.46-26.18-7.22-40.12,0,0-6.58-33.9-8.9-45.58H0M187.04,120.64c0,1.53-.14,3.1-.56,4.48-1.73,5.74-7.68,10.6-15.12,10.6-6.2,0-11.12-3.52-11.12-10.97,0-11.39,12.53-14.54,26.81-14.46v10.34s0,0,0,0ZM209.43,100.79c0-18.78-8.03-35.31-35.14-35.31-13.92,0-24.98,3.91-31.01,7.39l4.41,15.1c5.51-3.48,14.29-6.36,22.61-6.36,13.76-.04,16.02,7.79,16.02,12.8v1.19c-30-.04-48.94,10.34-48.94,31.49,0,12.92,9.65,25.03,26.42,25.03,10.33,0,18.96-4.12,24.13-10.71h.5s3.43,14.33,22.31,8.85c-.99-5.96-1.31-12.32-1.31-19.97v-29.49M246.78,126.82V39.9h-22.41v110.35h22.41v-23.43M539.97,39.9v81.4c0,11.23,2.12,19.09,6.63,23.89,3.96,4.2,10.45,6.93,18.25,6.93,6.63,0,13.15-1.26,16.22-2.41l-.29-17.51c-2.29.56-4.92,1.01-8.51,1.01-7.64,0-10.19-4.89-10.19-14.97v-31.15h19.52v-21.12h-19.52v-26.09h-22.11M482.12,67.35v82.9h23.12v-42.44c0-2.29.14-4.29.5-6.12,1.71-8.9,8.51-14.57,18.28-14.57,2.68,0,4.59.29,6.67.59v-21.7c-1.74-.35-2.92-.51-5.09-.51-8.63,0-18.44,5.57-22.56,17.51h-.62v-15.64h-20.29M262.47,67.35v82.9h22.52v-48.61c0-2.28.27-4.69,1.06-6.78,1.87-4.89,6.42-10.63,13.69-10.63,9.09,0,13.34,7.68,13.34,18.77v47.24h22.51v-49.2c0-2.18.3-4.8.94-6.72,1.85-5.57,6.75-10.1,13.51-10.1,9.21,0,13.64,7.55,13.64,20.6v45.42h22.52v-48.83c0-25.75-13.07-35.94-27.83-35.94-6.53,0-11.69,1.64-16.36,4.5-3.92,2.41-7.43,5.84-10.5,10.33h-.33c-3.56-8.93-11.93-14.82-22.85-14.82-14.02,0-20.32,7.11-24.14,13.13h-.34v-11.26h-21.38"/>
    <path class="cls-1" d="M795.17,146.22h.34c.45,0,.74-.19.74-.46,0-.32-.27-.49-.69-.49-.14,0-.29.03-.39.03v.93h0s0,0,0,0ZM795.12,148.45h-1.2v-3.9c.27-.05.91-.15,1.72-.15.88,0,1.28.12,1.57.32.24.17.42.46.42.85s-.37.74-.91.89v.05c.44.12.68.44.81,1,.12.56.2.79.27.94h-1.36c-.12-.14-.19-.49-.27-.83-.08-.39-.26-.59-.66-.59h-.39v1.42s0,0,0,0ZM795.62,143.28c-1.72,0-3.02,1.4-3.02,3.19s1.3,3.16,3.06,3.16c1.77.03,3.07-1.42,3.07-3.19s-1.3-3.16-3.09-3.16h-.03,0ZM795.69,142.22c2.4,0,4.31,1.89,4.31,4.22s-1.91,4.25-4.34,4.25-4.36-1.89-4.36-4.25,1.94-4.22,4.36-4.22h.03"/>
  </g>
</svg>