<?xml version="1.0" encoding="UTF-8"?>
<svg id="_图层_2" data-name="图层 2" xmlns="http://www.w3.org/2000/svg" viewBox="0 0 800 161.31">
  <defs>
    <style>
      .cls-1 {
        fill: #7f54b3;
      }

      .cls-1, .cls-2 {
        fill-rule: evenodd;
        stroke-width: 0px;
      }

      .cls-2 {
        fill: #000;
      }
    </style>
  </defs>
  <g id="_图层_1-2" data-name="图层 1">
    <g>
      <path class="cls-1" d="M245.73,0H25.15C11.19,0-.11,11.41,0,25.26v84.2C0,123.42,11.3,134.72,25.26,134.72h104.47l47.75,26.59-10.86-26.59h79.1c13.96,0,25.26-11.3,25.26-25.26V25.26c0-13.96-11.3-25.26-25.26-25.26ZM20.5,19.5c-3.1.22-5.43,1.33-6.98,3.43-1.55,1.99-2.1,4.54-1.77,7.42,6.54,41.55,12.63,69.57,18.28,84.09,2.22,5.32,4.76,7.87,7.76,7.64,4.65-.33,10.19-6.76,16.73-19.28,3.43-7.09,8.75-17.73,15.95-31.91,5.98,20.94,14.18,36.67,24.48,47.2,2.88,2.99,5.87,4.32,8.75,4.1,2.55-.22,4.54-1.55,5.87-3.99,1.11-2.1,1.55-4.54,1.33-7.31-.66-10.08.33-24.15,3.1-42.21,2.88-18.61,6.43-32.02,10.75-39.99.89-1.66,1.22-3.32,1.11-5.32-.22-2.55-1.33-4.65-3.43-6.31s-4.43-2.44-6.98-2.22c-3.21.22-5.65,1.77-7.31,4.87-6.87,12.52-11.74,32.79-14.62,60.93-4.21-10.64-7.76-23.15-10.53-37.89-1.22-6.54-4.21-9.64-9.08-9.31-3.32.22-6.09,2.44-8.31,6.65l-24.26,46.2c-3.99-16.06-7.76-35.67-11.19-58.83-.78-5.76-3.99-8.42-9.64-7.98ZM233.99,27.48c7.87,1.66,13.74,5.87,17.73,12.85,3.55,5.98,5.32,13.18,5.32,21.83,0,11.41-2.88,21.83-8.64,31.35-6.65,11.08-15.29,16.62-26.03,16.62-1.88,0-3.88-.22-5.98-.66-7.87-1.66-13.74-5.87-17.73-12.85-3.54-6.09-5.32-13.41-5.32-21.94,0-11.41,2.88-21.83,8.64-31.24,6.76-11.08,15.4-16.62,26.04-16.62,1.88,0,3.88.22,5.98.66ZM229.33,87.41c4.1-3.66,6.87-9.08,8.42-16.4.44-2.55.78-5.32.78-8.2,0-3.21-.66-6.65-1.99-10.08-1.66-4.32-3.88-6.65-6.54-7.2-3.99-.78-7.87,1.44-11.52,6.87-2.99,4.21-4.88,8.64-5.87,13.18-.55,2.55-.78,5.32-.78,8.09,0,3.21.66,6.65,1.99,10.08,1.66,4.32,3.88,6.65,6.54,7.2,2.77.55,5.76-.66,8.97-3.55ZM182.25,40.33c-3.99-6.98-9.97-11.19-17.73-12.85-2.11-.44-4.1-.66-5.98-.66-10.64,0-19.28,5.54-26.03,16.62-5.76,9.42-8.64,19.83-8.64,31.24,0,8.53,1.77,15.84,5.32,21.94,3.99,6.98,9.86,11.19,17.73,12.85,2.1.44,4.1.66,5.98.66,10.75,0,19.39-5.54,26.03-16.62,5.76-9.53,8.64-19.94,8.64-31.35,0-8.64-1.77-15.84-5.32-21.83ZM168.29,71.02c-1.55,7.31-4.32,12.74-8.42,16.4-3.21,2.88-6.2,4.1-8.97,3.55-2.66-.55-4.88-2.88-6.54-7.2-1.33-3.43-1.99-6.87-1.99-10.08,0-2.77.22-5.54.78-8.09,1-4.54,2.88-8.97,5.87-13.18,3.66-5.43,7.53-7.64,11.52-6.87,2.66.55,4.88,2.88,6.54,7.2,1.33,3.43,1.99,6.87,1.99,10.08,0,2.88-.22,5.65-.78,8.2Z"/>
      <path class="cls-2" d="M299.02,39.33c-7.42,7.31-11.08,16.62-11.08,27.92,0,12.08,3.66,21.94,10.97,29.36,7.31,7.42,16.84,11.19,28.69,11.19,3.43,0,7.31-.55,11.52-1.77v-17.95c-3.88,1.11-7.2,1.66-10.08,1.66-5.87,0-10.52-1.99-14.07-5.87-3.54-3.99-5.32-9.31-5.32-16.06,0-6.31,1.77-11.52,5.21-15.51,3.54-4.1,7.87-6.09,13.18-6.09,3.43,0,7.09.55,11.08,1.66v-17.95c-3.66-1-7.76-1.44-12.08-1.44-11.3-.11-20.61,3.55-28.03,10.86ZM375.91,28.36c-10.19,0-18.17,3.43-23.93,10.19-5.76,6.76-8.53,16.29-8.53,28.47,0,13.18,2.88,23.27,8.53,30.25,5.65,6.98,13.96,10.52,24.82,10.52s18.61-3.54,24.26-10.52c5.65-6.98,8.53-16.84,8.53-29.47s-2.88-22.38-8.64-29.25c-5.87-6.76-14.18-10.19-25.04-10.19ZM384.66,85.97c-1.99,3.1-4.99,4.65-8.75,4.65-3.55,0-6.2-1.55-8.09-4.65-1.88-3.1-2.77-9.31-2.77-18.72,0-14.51,3.66-21.71,11.08-21.71s11.74,7.31,11.74,22.05c-.11,9.08-1.22,15.29-3.21,18.39ZM464.31,30.47l-3.99,16.95c-1,4.32-1.99,8.75-2.88,13.29l-2.22,11.74c-2.1-11.74-4.99-25.7-8.64-41.99h-25.7l-9.64,75.45h19.28l5.21-51.96,13.18,51.96h13.74l12.63-51.85,5.43,51.85h20.16l-10.19-75.45h-26.37ZM556.6,30.47l-3.99,16.95c-1,4.32-1.99,8.75-2.88,13.29l-2.22,11.74c-2.1-11.74-4.99-25.7-8.64-41.99h-25.7l-9.64,75.45h19.28l5.21-51.96,13.18,51.96h13.74l12.52-51.85,5.43,51.85h20.16l-10.19-75.45h-26.26ZM619.31,76.11h18.06v-15.62h-18.06v-13.85h20.83v-16.06h-41.21v75.45h41.32v-16.06h-20.94v-13.85ZM697.63,64.15c2.11-3.43,3.21-6.98,3.21-10.64,0-7.09-2.77-12.74-8.31-16.84-5.54-4.1-13.18-6.2-22.71-6.2h-23.71v75.45h20.39v-34.34h.33l16.51,34.34h21.49l-16.29-34.01c3.88-1.77,6.98-4.32,9.08-7.76ZM666.39,62.93v-17.95c4.87.11,8.31.89,10.41,2.44,2.1,1.55,3.1,3.99,3.1,7.53,0,5.21-4.54,7.87-13.52,7.98ZM712.81,39.33c-7.42,7.31-11.08,16.62-11.08,27.92,0,12.08,3.66,21.94,10.97,29.36,7.31,7.42,16.84,11.19,28.69,11.19,3.43,0,7.31-.55,11.52-1.77v-17.95c-3.87,1.11-7.2,1.66-10.08,1.66-5.87,0-10.52-1.99-14.07-5.87-3.55-3.99-5.32-9.31-5.32-16.06,0-6.31,1.77-11.52,5.2-15.51,3.55-4.1,7.87-6.09,13.18-6.09,3.43,0,7.09.55,11.08,1.66v-17.95c-3.65-1-7.75-1.44-12.07-1.44-11.19-.11-20.61,3.55-28.04,10.86ZM778.95,89.74v-13.74h18.05v-15.62h-18.05v-13.85h20.93v-16.06h-41.21v75.45h41.32v-16.06h-21.05v-.11Z"/>
    </g>
  </g>
</svg>